<?xml version="1.0" encoding="utf-8"?>
<!-- Generator: Adobe Illustrator 20.1.0, SVG Export Plug-In . SVG Version: 6.00 Build 0)  -->
<svg version="1.1" id="Isolation_Mode" xmlns="http://www.w3.org/2000/svg" xmlns:xlink="http://www.w3.org/1999/xlink" x="0px"
	 y="0px" viewBox="0 0 228.9 227.3" style="enable-background:new 0 0 228.9 227.3;" xml:space="preserve">
<style type="text/css">
	.st0{fill:#FF0000;}
	.st1{fill:url(#SVGID_1_);}
	.st2{fill:#FFFFFF;}
</style>
<g>
	<g>
		
			<ellipse transform="matrix(7.412449e-02 -0.9972 0.9972 7.412449e-02 -6.8186 218.7588)" class="st0" cx="114.4" cy="113.1" rx="110.1" ry="110.1"/>
		
			<linearGradient id="SVGID_1_" gradientUnits="userSpaceOnUse" x1="36.5261" y1="190.9277" x2="192.2775" y2="35.1764" gradientTransform="matrix(0.9972 7.412449e-02 -7.412449e-02 0.9972 8.6947 -8.169)">
			<stop  offset="0" style="stop-color:#000000;stop-opacity:0.2"/>
			<stop  offset="1" style="stop-color:#000000;stop-opacity:0"/>
		</linearGradient>
		<circle class="st1" cx="114.4" cy="113.1" r="110.1"/>
	</g>
</g>
<g>
	<g>
		<g>
			<path class="st2" d="M80,77.9c0,1.2-0.2,2.3-0.6,3.3c-0.4,1-1,1.8-1.8,2.6c-0.8,0.7-1.9,1.3-3.2,1.7c-1.3,0.4-2.9,0.6-4.7,0.6
				l-19.6,0l-2.3,13.6c1.5-0.3,3-0.5,4.5-0.6c1.4-0.1,2.8-0.2,4.2-0.2c4.3,0,8.1,0.6,11.4,2c3.3,1.3,6.1,3.1,8.4,5.4
				c2.3,2.3,4,4.9,5.1,8c1.1,3.1,1.7,6.3,1.7,9.8c0,4.4-0.8,8.4-2.3,12c-1.6,3.6-3.7,6.8-6.5,9.4c-2.8,2.6-6.1,4.7-9.9,6.1
				c-3.9,1.5-8.1,2.2-12.7,2.2c-2.7,0-5.2-0.3-7.6-0.8c-2.4-0.6-4.7-1.3-6.8-2.3c-2.1-1-4.1-2.1-5.9-3.3c-1.8-1.3-3.4-2.6-4.9-4
				l5.4-7.2c0.6-0.8,1.2-1.3,2-1.7c0.8-0.4,1.6-0.6,2.4-0.6c1.1,0,2.2,0.3,3.2,0.9c1,0.6,2.1,1.3,3.3,2c1.2,0.7,2.6,1.4,4.1,2
				c1.6,0.6,3.5,0.9,5.9,0.9c2.3,0,4.3-0.4,6-1.2c1.7-0.8,3-1.8,4-3.2c1-1.3,1.8-2.9,2.3-4.7c0.5-1.8,0.7-3.7,0.7-5.7
				c0-4-1.1-7-3.4-9.1c-2.3-2.1-5.5-3.1-9.6-3.1c-3.7,0-7.3,0.7-10.8,2.1L31,111.8l6.9-41.1l42.1,0L80,77.9z"/>
			<path class="st2" d="M149.5,111.6c0,7.2-0.8,13.4-2.3,18.7c-1.5,5.3-3.7,9.6-6.4,13.1c-2.7,3.5-6,6-9.7,7.7
				c-3.7,1.7-7.8,2.5-12.1,2.5c-4.4,0-8.4-0.8-12.1-2.5c-3.7-1.7-6.9-4.3-9.6-7.7c-2.7-3.5-4.8-7.8-6.4-13.1
				c-1.5-5.3-2.3-11.5-2.3-18.7c0-7.2,0.7-13.4,2.3-18.7c1.5-5.3,3.6-9.6,6.3-13.1c2.7-3.5,5.9-6,9.6-7.7c3.7-1.7,7.7-2.5,12.1-2.5
				c4.4,0,8.4,0.8,12.2,2.5c3.7,1.7,7,4.2,9.7,7.7c2.7,3.5,4.9,7.8,6.4,13.1C148.7,98.2,149.5,104.5,149.5,111.6z M131.5,111.6
				c0-5.7-0.4-10.3-1.1-13.9c-0.7-3.6-1.7-6.5-2.9-8.5s-2.5-3.5-4-4.3c-1.5-0.8-3-1.2-4.6-1.2c-1.5,0-3.1,0.4-4.5,1.2
				c-1.5,0.8-2.8,2.2-3.9,4.3c-1.1,2.1-2.1,4.9-2.8,8.5c-0.7,3.6-1,8.3-1,14c0,5.7,0.4,10.4,1.1,14c0.7,3.6,1.6,6.5,2.8,8.5
				c1.1,2.1,2.5,3.5,4,4.3c1.5,0.8,3,1.2,4.5,1.2c1.5,0,3.1-0.4,4.6-1.2c1.5-0.8,2.8-2.2,4-4.3c1.2-2.1,2.1-4.9,2.8-8.5
				C131.1,122,131.5,117.4,131.5,111.6z"/>
			<path class="st2" d="M175,142.6c0,6.8-4.1,10.5-9.2,10.5c-5.2,0-8.9-4.1-8.9-10.1c0-6.3,3.9-10.4,9.2-10.4
				C171.4,132.5,175,136.7,175,142.6z M159.5,142.9c0,4.2,2.3,8,6.3,8c4.1,0,6.4-3.8,6.4-8.3c0-3.9-2.1-8.1-6.3-8.1
				C161.7,134.6,159.5,138.5,159.5,142.9z"/>
			<path class="st2" d="M177.5,132.8l10.7,0l0,2.2l-8.1,0l0,6.6l7.5,0l0,2.1l-7.5,0l0,9l-2.6,0L177.5,132.8z"/>
			<path class="st2" d="M191.2,132.8l10.7,0l0,2.2l-8.1,0l0,6.6l7.5,0l0,2.1l-7.5,0l0,9l-2.6,0L191.2,132.8z"/>
		</g>
		<g>
			<path class="st2" d="M174.4,84.2c0,1.8-0.3,3.4-1,4.9c-0.7,1.5-1.5,2.8-2.6,3.8c-1.1,1.1-2.3,1.9-3.8,2.5
				c-1.4,0.6-2.9,0.9-4.5,0.9c-1.7,0-3.3-0.3-4.7-0.9c-1.4-0.6-2.7-1.4-3.7-2.5c-1-1.1-1.9-2.3-2.5-3.8c-0.6-1.5-0.9-3.1-0.9-4.9
				c0-1.9,0.3-3.6,0.9-5.1c0.6-1.5,1.4-2.8,2.4-3.9c1-1.1,2.3-1.9,3.7-2.5c1.4-0.6,3-0.9,4.7-0.9c1.7,0,3.3,0.3,4.8,0.9
				c1.5,0.6,2.7,1.4,3.8,2.5c1,1.1,1.9,2.4,2.5,3.9C174.1,80.6,174.4,82.3,174.4,84.2z M189.9,73.8c0.3-0.4,0.8-0.7,1.3-1.1
				c0.5-0.3,1.2-0.5,2.1-0.5l7.6,0L163.8,120c-0.3,0.4-0.8,0.8-1.3,1.1c-0.5,0.3-1.1,0.4-1.8,0.4l-7.8,0L189.9,73.8z M166.4,84.2
				c0-1.1-0.1-2.1-0.3-2.9c-0.2-0.8-0.5-1.4-0.8-1.8c-0.3-0.4-0.7-0.8-1.2-0.9c-0.5-0.2-1-0.3-1.5-0.3c-0.5,0-1,0.1-1.5,0.3
				c-0.5,0.2-0.8,0.5-1.1,0.9c-0.3,0.5-0.6,1.1-0.7,1.8c-0.2,0.8-0.3,1.7-0.3,2.9c0,1.1,0.1,2,0.3,2.7c0.2,0.7,0.4,1.3,0.7,1.7
				c0.3,0.4,0.7,0.7,1.2,0.9c0.5,0.2,0.9,0.3,1.5,0.3c0.5,0,1-0.1,1.5-0.3c0.5-0.2,0.9-0.5,1.2-0.9c0.3-0.4,0.6-1,0.8-1.7
				C166.3,86.2,166.4,85.3,166.4,84.2z M202.8,109.9c0,1.8-0.3,3.5-1,5c-0.7,1.5-1.5,2.8-2.6,3.9c-1.1,1.1-2.3,1.9-3.8,2.5
				c-1.4,0.6-2.9,0.9-4.5,0.9c-1.7,0-3.3-0.3-4.7-0.9c-1.4-0.6-2.7-1.4-3.7-2.5c-1-1.1-1.9-2.4-2.5-3.9c-0.6-1.5-0.9-3.1-0.9-5
				c0-1.9,0.3-3.6,0.9-5.1c0.6-1.5,1.4-2.8,2.4-3.9c1-1.1,2.3-1.9,3.7-2.5c1.4-0.6,3-0.9,4.7-0.9c1.7,0,3.3,0.3,4.8,0.9
				c1.5,0.6,2.7,1.4,3.8,2.5c1,1.1,1.9,2.4,2.5,3.9C202.5,106.4,202.8,108.1,202.8,109.9z M194.7,109.9c0-1.1-0.1-2.1-0.3-2.8
				c-0.2-0.8-0.5-1.4-0.8-1.8c-0.3-0.4-0.7-0.8-1.2-0.9c-0.5-0.2-1-0.3-1.5-0.3c-0.5,0-1,0.1-1.5,0.3c-0.5,0.2-0.8,0.5-1.1,0.9
				c-0.3,0.5-0.6,1.1-0.7,1.8c-0.2,0.8-0.3,1.7-0.3,2.8c0,1.1,0.1,2,0.3,2.7c0.2,0.7,0.4,1.3,0.7,1.7c0.3,0.4,0.7,0.7,1.2,0.9
				c0.5,0.2,0.9,0.3,1.5,0.3c0.5,0,1-0.1,1.5-0.3c0.5-0.2,0.9-0.5,1.2-0.9c0.3-0.4,0.6-1,0.8-1.7C194.7,111.9,194.7,111,194.7,109.9
				z"/>
		</g>
	</g>
</g>
</svg>
