<svg width="91" height="91" fill="none" xmlns="http://www.w3.org/2000/svg"><path d="M45.5 0l3.679 4.624L53.624.731l2.794 5.207 5.07-3.037 1.819 5.622 5.53-2.082.786 5.856 5.813-1.062-.272 5.903 5.91-.007-1.322 5.76 5.815 1.048-2.329 5.43 5.535 2.07-3.261 4.928 5.076 3.025L86.5 43.66l4.454 3.882-4.784 3.468 3.69 4.616-5.328 2.557 2.806 5.2-5.697 1.566 1.832 5.618-5.886.523.8 5.854-5.885-.536-.258 5.903-5.694-1.578-1.308 5.762-5.321-2.57-2.316 5.436-4.777-3.478-3.25 4.935L45.5 86.54l-4.079 4.276-3.25-4.935-4.776 3.478-2.316-5.436-5.32 2.57-1.309-5.762-5.694 1.578-.259-5.903-5.884.536.8-5.854-5.886-.523 1.832-5.618-5.698-1.565 2.807-5.2-5.327-2.558 3.69-4.616L.046 47.54 4.5 43.66.412 39.392l5.076-3.025-3.261-4.927 5.535-2.07-2.33-5.431 5.816-1.048-1.321-5.76 5.909.007-.272-5.903 5.813 1.062.786-5.856 5.53 2.082 1.82-5.622 5.069 3.037L37.376.731l4.445 3.893L45.5 0z" fill="#FF2559"/></svg>
