<svg id="Layer_1" data-name="Layer 1" xmlns="http://www.w3.org/2000/svg" viewBox="0 0 272 149.83"><defs><style>.cls-1{fill:#221b1b;}.cls-2{fill:#cc5d6d;}.cls-3{fill:#595255;}</style></defs><title>Logo_Heart</title><path class="cls-1" d="M35.86,122v-8h5.52v21.71H35.86v-8.34H29.75v8.34H24.2V114h5.55v8Z"/><path class="cls-1" d="M59.9,129.82H49.2q.77,1.89,3.47,1.89a4,4,0,0,0,2.82-1.09l3.72,2.61a8,8,0,0,1-6.67,2.88,8.74,8.74,0,0,1-6.33-2.3A7.89,7.89,0,0,1,43.87,128a8,8,0,0,1,8.25-8.22,7.67,7.67,0,0,1,5.74,2.33,8,8,0,0,1,2.26,5.83A7.7,7.7,0,0,1,59.9,129.82Zm-10.76-3.57h6a2.73,2.73,0,0,0-2.92-2.17A2.86,2.86,0,0,0,49.14,126.26Z"/><path class="cls-1" d="M73.21,121.61v-1.43h5.15v15.51H73.21v-1.43a5.47,5.47,0,0,1-4.4,1.86,6.69,6.69,0,0,1-5.21-2.33,8.54,8.54,0,0,1-2.08-5.86,8.36,8.36,0,0,1,2.08-5.83,6.66,6.66,0,0,1,5.21-2.36A5.47,5.47,0,0,1,73.21,121.61Zm-5.61,8.78a3.45,3.45,0,0,0,4.71,0,3.79,3.79,0,0,0,0-4.9,3.45,3.45,0,0,0-4.71,0,3.79,3.79,0,0,0,0,4.9Z"/><path class="cls-1" d="M86.48,120.18v2.88a4.1,4.1,0,0,1,1.72-2.34,5.18,5.18,0,0,1,2.93-.85v5.71a4.5,4.5,0,0,0-3.23.65,3.36,3.36,0,0,0-1.43,3v6.42H81.33V120.18Z"/><path class="cls-1" d="M103.11,120.18v4.93H99.88v4.5a1.18,1.18,0,0,0,.7,1.26,7.14,7.14,0,0,0,2.53.17v4.65q-4.59.56-6.51-.84t-1.86-5.12v-4.62H92.41v-4.93h2.33v-2.79l5.15-1.55v4.34Z"/><path class="cls-1" d="M124.63,122v-8h5.52v21.71h-5.52v-8.34h-6.11v8.34H113V114h5.55v8Z"/><path class="cls-1" d="M148.67,129.82H138q.77,1.89,3.47,1.89a4,4,0,0,0,2.82-1.09l3.72,2.61a8,8,0,0,1-6.67,2.88,8.74,8.74,0,0,1-6.33-2.3,7.89,7.89,0,0,1-2.36-5.86,8,8,0,0,1,8.25-8.22,7.67,7.67,0,0,1,5.74,2.33,8,8,0,0,1,2.26,5.83A7.7,7.7,0,0,1,148.67,129.82Zm-10.76-3.57h6a2.73,2.73,0,0,0-2.92-2.17A2.86,2.86,0,0,0,137.91,126.26Z"/><path class="cls-1" d="M162,121.61v-1.43h5.15v15.51H162v-1.43a5.47,5.47,0,0,1-4.4,1.86,6.69,6.69,0,0,1-5.21-2.33,8.54,8.54,0,0,1-2.08-5.86,8.36,8.36,0,0,1,2.08-5.83,6.66,6.66,0,0,1,5.21-2.36A5.47,5.47,0,0,1,162,121.61Zm-5.61,8.78a3.45,3.45,0,0,0,4.71,0,3.79,3.79,0,0,0,0-4.9,3.45,3.45,0,0,0-4.71,0,3.79,3.79,0,0,0,0,4.9Z"/><path class="cls-1" d="M175.25,135.69H170.1V113h5.15Z"/><path class="cls-1" d="M187.84,120.18v4.93h-3.23v4.5a1.18,1.18,0,0,0,.7,1.26,7.14,7.14,0,0,0,2.53.17v4.65q-4.59.56-6.51-.84t-1.86-5.12v-4.62h-2.33v-4.93h2.33v-2.79l5.15-1.55v4.34Z"/><path class="cls-1" d="M202.64,135.69h-5.15V113h5.15Z"/><path class="cls-1" d="M216.53,121.61v-1.43h5.15v15.51h-5.15v-1.43a5.47,5.47,0,0,1-4.4,1.86,6.69,6.69,0,0,1-5.21-2.33,8.54,8.54,0,0,1-2.08-5.86,8.36,8.36,0,0,1,2.08-5.83,6.66,6.66,0,0,1,5.21-2.36A5.47,5.47,0,0,1,216.53,121.61Zm-5.61,8.78a3.45,3.45,0,0,0,4.71,0,3.79,3.79,0,0,0,0-4.9,3.45,3.45,0,0,0-4.71,0,3.79,3.79,0,0,0,0,4.9Z"/><path class="cls-1" d="M234.21,119.74a6.63,6.63,0,0,1,5.18,2.36,8.43,8.43,0,0,1,2.11,5.83,8.54,8.54,0,0,1-2.11,5.86,6.72,6.72,0,0,1-5.18,2.33,5.47,5.47,0,0,1-4.4-1.86v1.43h-5.15V114h5.15v7.63A5.47,5.47,0,0,1,234.21,119.74Zm-3.5,10.64a3.45,3.45,0,0,0,4.71,0,3.79,3.79,0,0,0,0-4.9,3.45,3.45,0,0,0-4.71,0,3.79,3.79,0,0,0,0,4.9Z"/><path class="cls-1" d="M245.5,136.12a3.14,3.14,0,0,1-2.31-.95,3.2,3.2,0,0,1,0-4.56,3.16,3.16,0,0,1,2.29-.95,3.23,3.23,0,0,1,0,6.45Z"/><path class="cls-2" d="M148.88,49.11h0c0-.29,0-.59,0-.88a22.51,22.51,0,0,0-22.37-22.17c-9,0-16.81,5.82-20.34,13.22h0c-3.53-7.41-11.31-13.22-20.34-13.22A22.51,22.51,0,0,0,63.47,48.22c0,.3,0,.59,0,.88h0S62.23,63.21,77.93,78.61c7.14,7.15,15.12,13.95,28.26,24.63,13.14-10.68,21.12-17.48,28.26-24.63C150.14,63.21,148.88,49.11,148.88,49.11Z"/><path class="cls-3" d="M209,38.09h0c0-.35,0-.71,0-1.06a27.09,27.09,0,0,0-26.92-26.68c-10.87,0-20.23,7-24.48,15.91h0c-4.25-8.92-13.61-15.91-24.48-15.91A27.09,27.09,0,0,0,106.19,37c0,.36,0,.71,0,1.06h0s-1.52,17,17.37,35.51c8.59,8.61,18.2,16.78,34,29.64,15.81-12.85,25.42-21,34-29.64C210.49,55.07,209,38.09,209,38.09Z"/></svg>
