<?xml version="1.0" encoding="utf-8"?>
<!-- Generator: Adobe Illustrator 20.1.0, SVG Export Plug-In . SVG Version: 6.00 Build 0)  -->
<svg version="1.1" id="Layer_1" xmlns="http://www.w3.org/2000/svg" xmlns:xlink="http://www.w3.org/1999/xlink" x="0px" y="0px"
	 viewBox="0 0 75.1 11.5" style="enable-background:new 0 0 75.1 11.5;" xml:space="preserve">
<style type="text/css">
	.st0{fill:url(#SVGID_1_);}
	.st1{opacity:0.5;fill:url(#SVGID_2_);}
	.st2{fill:url(#SVGID_3_);}
	.st3{opacity:0.5;fill:url(#SVGID_4_);}
	.st4{fill:url(#SVGID_5_);}
	.st5{opacity:0.5;fill:url(#SVGID_6_);}
	.st6{fill:url(#SVGID_7_);}
	.st7{opacity:0.5;fill:url(#SVGID_8_);}
	.st8{fill:url(#SVGID_9_);}
	.st9{opacity:0.5;fill:url(#SVGID_10_);}
	.st10{fill:url(#SVGID_11_);}
	.st11{opacity:0.5;fill:url(#SVGID_12_);}
</style>
<g>
	<g>
		<radialGradient id="SVGID_1_" cx="2.0465" cy="11.6588" r="12.6198" gradientUnits="userSpaceOnUse">
			<stop  offset="0.3548" style="stop-color:#FFC200"/>
			<stop  offset="0.5084" style="stop-color:#FFBD07"/>
			<stop  offset="0.7249" style="stop-color:#FFAF19"/>
			<stop  offset="0.9777" style="stop-color:#FF9737"/>
			<stop  offset="1" style="stop-color:#FF953A"/>
		</radialGradient>
		<path class="st0" d="M9.8,11.1c0.1,0.4-0.2,0.5-0.5,0.4l-2.7-1.4c-0.3-0.2-0.9-0.2-1.2,0l-2.7,1.3c-0.3,0.2-0.6,0-0.5-0.4l0.5-3
			c0.1-0.4-0.1-0.9-0.4-1.1L0.1,4.7C-0.1,4.5,0,4.2,0.3,4.1l3-0.5c0.4-0.1,0.8-0.4,1-0.7l1.4-2.7c0.2-0.3,0.4-0.3,0.6,0L7.8,3
			c0.2,0.3,0.6,0.6,1,0.7l3,0.5c0.4,0.1,0.4,0.3,0.2,0.6L9.8,6.9C9.5,7.2,9.3,7.7,9.4,8.1L9.8,11.1z"/>
		<radialGradient id="SVGID_2_" cx="1.0869" cy="14.7862" r="18.2467" gradientUnits="userSpaceOnUse">
			<stop  offset="0.3548" style="stop-color:#FFC200"/>
			<stop  offset="0.5084" style="stop-color:#FFBD07"/>
			<stop  offset="0.7249" style="stop-color:#FFAF19"/>
			<stop  offset="0.9777" style="stop-color:#FF9737"/>
			<stop  offset="1" style="stop-color:#FF953A"/>
		</radialGradient>
		<path class="st1" d="M6.1,0.1c0.1,0,0.1,0.1,0.2,0.2L7.6,3c0.2,0.4,0.7,0.7,1.1,0.8l3,0.5c0.1,0,0.2,0.1,0.2,0.1
			c0,0.1,0,0.1-0.1,0.2L9.7,6.8C9.4,7.1,9.2,7.7,9.2,8.1l0.4,3c0,0.1,0,0.2,0,0.2c0,0,0,0-0.1,0c0,0-0.1,0-0.2,0L6.7,9.9
			C6.5,9.9,6.3,9.8,6,9.8c-0.2,0-0.5,0-0.7,0.1l-2.7,1.3c-0.1,0-0.1,0-0.2,0c-0.1,0-0.1,0-0.1,0c0,0,0-0.1,0-0.2l0.5-3
			c0.1-0.4-0.1-1-0.4-1.3L0.3,4.6C0.2,4.5,0.1,4.4,0.2,4.4c0-0.1,0.1-0.1,0.2-0.1l3-0.5C3.8,3.7,4.3,3.4,4.5,3l1.4-2.7
			C5.9,0.2,6,0.1,6.1,0.1 M6.1,0C5.9,0,5.8,0.1,5.7,0.2L4.3,2.9c-0.2,0.3-0.6,0.6-1,0.7l-3,0.5C0,4.2-0.1,4.5,0.1,4.7l2.1,2.2
			C2.5,7.2,2.7,7.7,2.6,8l-0.5,3c0,0.3,0.1,0.4,0.3,0.4c0.1,0,0.1,0,0.2-0.1l2.7-1.3C5.6,10,5.8,10,6,10c0.2,0,0.4,0,0.6,0.1
			l2.7,1.4c0.1,0,0.2,0.1,0.2,0.1c0.2,0,0.3-0.2,0.3-0.4l-0.4-3C9.3,7.7,9.5,7.2,9.8,6.9l2.1-2.2c0.3-0.3,0.2-0.5-0.2-0.6l-3-0.5
			C8.4,3.6,7.9,3.3,7.8,3L6.4,0.2C6.3,0.1,6.2,0,6.1,0L6.1,0z"/>
	</g>
	<g>
		<radialGradient id="SVGID_3_" cx="17.8122" cy="11.6588" r="12.6194" gradientUnits="userSpaceOnUse">
			<stop  offset="0.3548" style="stop-color:#FFC200"/>
			<stop  offset="0.5084" style="stop-color:#FFBD07"/>
			<stop  offset="0.7249" style="stop-color:#FFAF19"/>
			<stop  offset="0.9777" style="stop-color:#FF9737"/>
			<stop  offset="1" style="stop-color:#FF953A"/>
		</radialGradient>
		<path class="st2" d="M25.6,11.1c0.1,0.4-0.2,0.5-0.5,0.4l-2.7-1.4c-0.3-0.2-0.9-0.2-1.2,0l-2.7,1.3c-0.3,0.2-0.6,0-0.5-0.4l0.5-3
			c0.1-0.4-0.1-0.9-0.4-1.1l-2.1-2.2c-0.3-0.3-0.2-0.5,0.2-0.6l3-0.5c0.4-0.1,0.8-0.4,1-0.7l1.4-2.7c0.2-0.3,0.4-0.3,0.6,0L23.5,3
			c0.2,0.3,0.6,0.6,1,0.7l3,0.5c0.4,0.1,0.4,0.3,0.2,0.6l-2.1,2.2c-0.3,0.3-0.4,0.8-0.4,1.1L25.6,11.1z"/>
		<radialGradient id="SVGID_4_" cx="16.8526" cy="14.7862" r="18.2462" gradientUnits="userSpaceOnUse">
			<stop  offset="0.3548" style="stop-color:#FFC200"/>
			<stop  offset="0.5084" style="stop-color:#FFBD07"/>
			<stop  offset="0.7249" style="stop-color:#FFAF19"/>
			<stop  offset="0.9777" style="stop-color:#FF9737"/>
			<stop  offset="1" style="stop-color:#FF953A"/>
		</radialGradient>
		<path class="st3" d="M21.8,0.1c0.1,0,0.1,0.1,0.2,0.2L23.4,3c0.2,0.4,0.7,0.7,1.1,0.8l3,0.5c0.1,0,0.2,0.1,0.2,0.1
			c0,0.1,0,0.1-0.1,0.2l-2.1,2.2C25.1,7.1,25,7.7,25,8.1l0.4,3c0,0.1,0,0.2,0,0.2c0,0,0,0-0.1,0c0,0-0.1,0-0.2,0l-2.7-1.4
			c-0.2-0.1-0.4-0.1-0.7-0.1c-0.2,0-0.5,0-0.7,0.1l-2.7,1.3c-0.1,0-0.1,0-0.2,0c-0.1,0-0.1,0-0.1,0c0,0,0-0.1,0-0.2l0.5-3
			c0.1-0.4-0.1-1-0.4-1.3L16,4.6c-0.1-0.1-0.1-0.2-0.1-0.2c0-0.1,0.1-0.1,0.2-0.1l3-0.5C19.6,3.7,20,3.4,20.2,3l1.4-2.7
			C21.7,0.2,21.8,0.1,21.8,0.1 M21.8,0c-0.1,0-0.2,0.1-0.3,0.2l-1.4,2.7c-0.2,0.3-0.6,0.6-1,0.7l-3,0.5c-0.4,0.1-0.4,0.3-0.2,0.6
			L18,6.9c0.3,0.3,0.4,0.8,0.4,1.1l-0.5,3c0,0.3,0.1,0.4,0.3,0.4c0.1,0,0.1,0,0.2-0.1l2.7-1.3c0.2-0.1,0.4-0.1,0.6-0.1
			c0.2,0,0.4,0,0.6,0.1l2.7,1.4c0.1,0,0.2,0.1,0.2,0.1c0.2,0,0.3-0.2,0.3-0.4l-0.4-3c-0.1-0.4,0.1-0.9,0.4-1.1l2.1-2.2
			c0.3-0.3,0.2-0.5-0.2-0.6l-3-0.5c-0.4-0.1-0.8-0.4-1-0.7l-1.4-2.7C22,0.1,21.9,0,21.8,0L21.8,0z"/>
	</g>
	<g>
		<radialGradient id="SVGID_5_" cx="33.5776" cy="11.6588" r="12.6195" gradientUnits="userSpaceOnUse">
			<stop  offset="0.3548" style="stop-color:#FFC200"/>
			<stop  offset="0.5084" style="stop-color:#FFBD07"/>
			<stop  offset="0.7249" style="stop-color:#FFAF19"/>
			<stop  offset="0.9777" style="stop-color:#FF9737"/>
			<stop  offset="1" style="stop-color:#FF953A"/>
		</radialGradient>
		<path class="st4" d="M41.4,11.1c0.1,0.4-0.2,0.5-0.5,0.4l-2.7-1.4c-0.3-0.2-0.9-0.2-1.2,0l-2.7,1.3c-0.3,0.2-0.6,0-0.5-0.4l0.5-3
			c0.1-0.4-0.1-0.9-0.4-1.1l-2.1-2.2c-0.3-0.3-0.2-0.5,0.2-0.6l3-0.5c0.4-0.1,0.8-0.4,1-0.7l1.4-2.7c0.2-0.3,0.4-0.3,0.6,0L39.3,3
			c0.2,0.3,0.6,0.6,1,0.7l3,0.5c0.4,0.1,0.4,0.3,0.2,0.6l-2.1,2.2c-0.3,0.3-0.4,0.8-0.4,1.1L41.4,11.1z"/>
		<radialGradient id="SVGID_6_" cx="32.6179" cy="14.7862" r="18.2463" gradientUnits="userSpaceOnUse">
			<stop  offset="0.3548" style="stop-color:#FFC200"/>
			<stop  offset="0.5084" style="stop-color:#FFBD07"/>
			<stop  offset="0.7249" style="stop-color:#FFAF19"/>
			<stop  offset="0.9777" style="stop-color:#FF9737"/>
			<stop  offset="1" style="stop-color:#FF953A"/>
		</radialGradient>
		<path class="st5" d="M37.6,0.1c0.1,0,0.1,0.1,0.2,0.2L39.2,3c0.2,0.4,0.7,0.7,1.1,0.8l3,0.5c0.1,0,0.2,0.1,0.2,0.1
			c0,0.1,0,0.1-0.1,0.2l-2.1,2.2c-0.3,0.3-0.5,0.8-0.4,1.3l0.4,3c0,0.1,0,0.2,0,0.2c0,0,0,0-0.1,0c0,0-0.1,0-0.2,0l-2.7-1.4
			c-0.2-0.1-0.4-0.1-0.7-0.1c-0.2,0-0.5,0-0.7,0.1l-2.7,1.3c-0.1,0-0.1,0-0.2,0c-0.1,0-0.1,0-0.1,0c0,0,0-0.1,0-0.2l0.5-3
			c0.1-0.4-0.1-1-0.4-1.3l-2.1-2.2c-0.1-0.1-0.1-0.2-0.1-0.2c0-0.1,0.1-0.1,0.2-0.1l3-0.5C35.3,3.7,35.8,3.4,36,3l1.4-2.7
			C37.5,0.2,37.5,0.1,37.6,0.1 M37.6,0c-0.1,0-0.2,0.1-0.3,0.2l-1.4,2.7c-0.2,0.3-0.6,0.6-1,0.7l-3,0.5c-0.4,0.1-0.4,0.3-0.2,0.6
			l2.1,2.2c0.3,0.3,0.4,0.8,0.4,1.1l-0.5,3c0,0.3,0.1,0.4,0.3,0.4c0.1,0,0.1,0,0.2-0.1l2.7-1.3c0.2-0.1,0.4-0.1,0.6-0.1
			c0.2,0,0.4,0,0.6,0.1l2.7,1.4c0.1,0,0.2,0.1,0.2,0.1c0.2,0,0.3-0.2,0.3-0.4l-0.4-3c-0.1-0.4,0.1-0.9,0.4-1.1l2.1-2.2
			c0.3-0.3,0.2-0.5-0.2-0.6l-3-0.5c-0.4-0.1-0.8-0.4-1-0.7l-1.4-2.7C37.8,0.1,37.7,0,37.6,0L37.6,0z"/>
	</g>
	<g>
		<radialGradient id="SVGID_7_" cx="49.3429" cy="11.6588" r="12.6196" gradientUnits="userSpaceOnUse">
			<stop  offset="0.3548" style="stop-color:#FFC200"/>
			<stop  offset="0.5084" style="stop-color:#FFBD07"/>
			<stop  offset="0.7249" style="stop-color:#FFAF19"/>
			<stop  offset="0.9777" style="stop-color:#FF9737"/>
			<stop  offset="1" style="stop-color:#FF953A"/>
		</radialGradient>
		<path class="st6" d="M57.1,11.1c0.1,0.4-0.2,0.5-0.5,0.4l-2.7-1.4c-0.3-0.2-0.9-0.2-1.2,0L50,11.4c-0.3,0.2-0.6,0-0.5-0.4l0.5-3
			c0.1-0.4-0.1-0.9-0.4-1.1l-2.1-2.2c-0.3-0.3-0.2-0.5,0.2-0.6l3-0.5c0.4-0.1,0.8-0.4,1-0.7L53,0.2c0.2-0.3,0.4-0.3,0.6,0L55.1,3
			c0.2,0.3,0.6,0.6,1,0.7l3,0.5c0.4,0.1,0.4,0.3,0.2,0.6l-2.1,2.2c-0.3,0.3-0.4,0.8-0.4,1.1L57.1,11.1z"/>
		<radialGradient id="SVGID_8_" cx="48.3832" cy="14.7862" r="18.2464" gradientUnits="userSpaceOnUse">
			<stop  offset="0.3548" style="stop-color:#FFC200"/>
			<stop  offset="0.5084" style="stop-color:#FFBD07"/>
			<stop  offset="0.7249" style="stop-color:#FFAF19"/>
			<stop  offset="0.9777" style="stop-color:#FF9737"/>
			<stop  offset="1" style="stop-color:#FF953A"/>
		</radialGradient>
		<path class="st7" d="M53.3,0.1c0.1,0,0.1,0.1,0.2,0.2L54.9,3c0.2,0.4,0.7,0.7,1.1,0.8l3,0.5c0.1,0,0.2,0.1,0.2,0.1
			c0,0.1,0,0.1-0.1,0.2L57,6.8c-0.3,0.3-0.5,0.8-0.4,1.3l0.4,3c0,0.1,0,0.2,0,0.2c0,0,0,0-0.1,0c0,0-0.1,0-0.2,0L54,9.9
			c-0.2-0.1-0.4-0.1-0.7-0.1c-0.2,0-0.5,0-0.7,0.1l-2.7,1.3c-0.1,0-0.1,0-0.2,0c-0.1,0-0.1,0-0.1,0c0,0,0-0.1,0-0.2l0.5-3
			c0.1-0.4-0.1-1-0.4-1.3l-2.1-2.2c-0.1-0.1-0.1-0.2-0.1-0.2c0-0.1,0.1-0.1,0.2-0.1l3-0.5c0.4-0.1,0.9-0.4,1.1-0.8l1.4-2.7
			C53.2,0.2,53.3,0.1,53.3,0.1 M53.3,0c-0.1,0-0.2,0.1-0.3,0.2l-1.4,2.7c-0.2,0.3-0.6,0.6-1,0.7l-3,0.5c-0.4,0.1-0.4,0.3-0.2,0.6
			l2.1,2.2C49.8,7.2,50,7.7,49.9,8l-0.5,3c0,0.3,0.1,0.4,0.3,0.4c0.1,0,0.1,0,0.2-0.1l2.7-1.3c0.2-0.1,0.4-0.1,0.6-0.1
			c0.2,0,0.4,0,0.6,0.1l2.7,1.4c0.1,0,0.2,0.1,0.2,0.1c0.2,0,0.3-0.2,0.3-0.4l-0.4-3c-0.1-0.4,0.1-0.9,0.4-1.1l2.1-2.2
			c0.3-0.3,0.2-0.5-0.2-0.6l-3-0.5c-0.4-0.1-0.8-0.4-1-0.7l-1.4-2.7C53.6,0.1,53.5,0,53.3,0L53.3,0z"/>
	</g>
	<g>
		<g>
			<radialGradient id="SVGID_9_" cx="65.1079" cy="11.6588" r="12.6199" gradientUnits="userSpaceOnUse">
				<stop  offset="0.3548" style="stop-color:#FFC200"/>
				<stop  offset="0.5084" style="stop-color:#FFBD07"/>
				<stop  offset="0.7249" style="stop-color:#FFAF19"/>
				<stop  offset="0.9777" style="stop-color:#FF9737"/>
				<stop  offset="1" style="stop-color:#FF953A"/>
			</radialGradient>
			<path class="st8" d="M72.9,11.1c0.1,0.4-0.2,0.5-0.5,0.4l-2.7-1.4c-0.3-0.2-0.9-0.2-1.2,0l-2.7,1.3c-0.3,0.2-0.6,0-0.5-0.4l0.5-3
				c0.1-0.4-0.1-0.9-0.4-1.1l-2.1-2.2C63,4.5,63,4.2,63.4,4.1l3-0.5c0.4-0.1,0.8-0.4,1-0.7l1.4-2.7c0.2-0.3,0.4-0.3,0.6,0L70.8,3
				c0.2,0.3,0.6,0.6,1,0.7l3,0.5c0.4,0.1,0.4,0.3,0.2,0.6l-2.1,2.2c-0.3,0.3-0.4,0.8-0.4,1.1L72.9,11.1z"/>
			<radialGradient id="SVGID_10_" cx="64.1482" cy="14.7862" r="18.2469" gradientUnits="userSpaceOnUse">
				<stop  offset="0.3548" style="stop-color:#FFC200"/>
				<stop  offset="0.5084" style="stop-color:#FFBD07"/>
				<stop  offset="0.7249" style="stop-color:#FFAF19"/>
				<stop  offset="0.9777" style="stop-color:#FF9737"/>
				<stop  offset="1" style="stop-color:#FF953A"/>
			</radialGradient>
			<path class="st9" d="M69.1,0.1c0.1,0,0.1,0.1,0.2,0.2L70.7,3c0.2,0.4,0.7,0.7,1.1,0.8l3,0.5c0.1,0,0.2,0.1,0.2,0.1
				c0,0.1,0,0.1-0.1,0.2l-2.1,2.2c-0.3,0.3-0.5,0.8-0.4,1.3l0.4,3c0,0.1,0,0.2,0,0.2c0,0,0,0-0.1,0c0,0-0.1,0-0.2,0l-2.7-1.4
				c-0.2-0.1-0.4-0.1-0.7-0.1c-0.2,0-0.5,0-0.7,0.1l-2.7,1.3c-0.1,0-0.1,0-0.2,0c-0.1,0-0.1,0-0.1,0c0,0,0-0.1,0-0.2l0.5-3
				c0.1-0.4-0.1-1-0.4-1.3l-2.1-2.2c-0.1-0.1-0.1-0.2-0.1-0.2c0-0.1,0.1-0.1,0.2-0.1l3-0.5c0.4-0.1,0.9-0.4,1.1-0.8l1.4-2.7
				C69,0.2,69.1,0.1,69.1,0.1 M69.1,0c-0.1,0-0.2,0.1-0.3,0.2l-1.4,2.7c-0.2,0.3-0.6,0.6-1,0.7l-3,0.5C63,4.2,63,4.5,63.2,4.7
				l2.1,2.2c0.3,0.3,0.4,0.8,0.4,1.1l-0.5,3c0,0.3,0.1,0.4,0.3,0.4c0.1,0,0.1,0,0.2-0.1l2.7-1.3c0.2-0.1,0.4-0.1,0.6-0.1
				c0.2,0,0.4,0,0.6,0.1l2.7,1.4c0.1,0,0.2,0.1,0.2,0.1c0.2,0,0.3-0.2,0.3-0.4l-0.4-3c-0.1-0.4,0.1-0.9,0.4-1.1L75,4.8
				c0.3-0.3,0.2-0.5-0.2-0.6l-3-0.5c-0.4-0.1-0.8-0.4-1-0.7l-1.4-2.7C69.3,0.1,69.2,0,69.1,0L69.1,0z"/>
		</g>
		<g>
			<radialGradient id="SVGID_11_" cx="65.1079" cy="11.6589" r="12.62" gradientUnits="userSpaceOnUse">
				<stop  offset="0.3548" style="stop-color:#DBDBDB"/>
				<stop  offset="0.5494" style="stop-color:#D4D4D4"/>
				<stop  offset="0.823" style="stop-color:#C2C2C2"/>
				<stop  offset="0.9946" style="stop-color:#B3B3B3"/>
			</radialGradient>
			<path class="st10" d="M75,4.8c0.3-0.3,0.2-0.5-0.2-0.6l-3-0.5c-0.4-0.1-0.8-0.4-1-0.7l-1.4-2.7C69.3,0.1,69.2,0,69.1,0V10
				c0.2,0,0.4,0,0.5,0.1l2.7,1.4c0.3,0.2,0.6,0,0.5-0.4l-0.4-3c-0.1-0.4,0.1-0.9,0.4-1.1L75,4.8z"/>
			<radialGradient id="SVGID_12_" cx="64.1484" cy="14.787" r="18.247" gradientUnits="userSpaceOnUse">
				<stop  offset="0.3548" style="stop-color:#DBDBDB"/>
				<stop  offset="0.5494" style="stop-color:#D4D4D4"/>
				<stop  offset="0.823" style="stop-color:#C2C2C2"/>
				<stop  offset="0.9946" style="stop-color:#B3B3B3"/>
			</radialGradient>
			<path class="st11" d="M75,4.8c0.3-0.3,0.2-0.5-0.2-0.6l-3-0.5c-0.4-0.1-0.8-0.4-1-0.7l-1.4-2.7C69.3,0.1,69.2,0,69.1,0v0.2
				c0.1,0,0.1,0.1,0.2,0.2L70.7,3c0.2,0.4,0.7,0.7,1.1,0.8l3,0.5c0.1,0,0.2,0.1,0.2,0.1c0,0.1,0,0.1-0.1,0.2l-2.1,2.2
				c-0.3,0.3-0.5,0.8-0.4,1.3l0.4,3c0,0.1,0,0.2,0,0.2c0,0,0,0-0.1,0c0,0-0.1,0-0.2,0l-2.7-1.4c-0.2-0.1-0.4-0.1-0.6-0.1V10
				c0.2,0,0.4,0,0.5,0.1l2.7,1.4c0.1,0,0.2,0.1,0.2,0.1c0.2,0,0.3-0.2,0.3-0.4l-0.4-3c-0.1-0.4,0.1-0.9,0.4-1.1L75,4.8z"/>
		</g>
	</g>
</g>
</svg>
